<svg width="186" height="64" viewBox="0 0 186 64" fill="none" xmlns="http://www.w3.org/2000/svg">
<g id="en_get 1" clip-path="url(#clip0_1160_18005)">
<rect id="Rectangle 168" x="1.5" y="1" width="183" height="62" rx="31" fill="black" stroke="#5D5D5D" stroke-width="2"/>
<path id="Vector" d="M66.64 22.3146C66.6621 22.741 66.5871 23.1669 66.4194 23.5665C66.2517 23.9661 65.9949 24.3311 65.6645 24.6393C65.2957 24.9817 64.8502 25.2509 64.3572 25.4291C63.8642 25.6074 63.3347 25.6907 62.8032 25.6738C61.9968 25.6682 61.2102 25.45 60.5419 25.0466C59.8737 24.6431 59.3535 24.0724 59.0466 23.406C58.7397 22.7395 58.6597 22.0069 58.8166 21.3C58.9735 20.5931 59.3604 19.9432 59.9288 19.432C60.3024 19.0911 60.7502 18.8224 61.2446 18.6425C61.739 18.4626 62.2695 18.3752 62.8032 18.3858C63.353 18.3842 63.8974 18.4831 64.4029 18.6764C64.8736 18.8461 65.2925 19.113 65.6255 19.4552L64.9362 20.0713C64.6766 19.7953 64.3488 19.5771 63.9786 19.4339C63.6084 19.2906 63.206 19.2263 62.8032 19.246C62.3969 19.2442 61.9944 19.3158 61.6199 19.4564C61.2453 19.597 60.9064 19.8037 60.6234 20.0642C60.3404 20.3247 60.1192 20.6336 59.973 20.9724C59.8268 21.3111 59.7587 21.6728 59.7727 22.0356C59.7642 22.5775 59.9354 23.1094 60.2648 23.5643C60.5942 24.0193 61.0669 24.3769 61.6234 24.592C62.1799 24.8071 62.7953 24.8701 63.3918 24.773C63.9883 24.6759 64.5393 24.4231 64.9752 24.0465C65.3754 23.6589 65.6063 23.1556 65.6255 22.6284H62.8032V21.7916H66.588C66.6227 21.9642 66.6401 22.1392 66.64 22.3146ZM72.5969 19.4087H69.0852V21.6172H72.2847V22.4541H69.0852V24.6626H72.5969V25.5227H68.0447V18.5486H72.5969V19.4087ZM76.8629 25.5227H75.8614V19.4087H73.6764V18.5486H79.1V19.4087H76.8629V25.5227ZM82.9238 25.5227V18.5486H83.9253V25.5227H82.9238ZM88.3734 25.5227H87.3719V19.4087H85.1869V18.5486H90.5454V19.4087H88.3734V25.5227ZM100.703 24.6161C99.943 25.2918 98.9142 25.6711 97.8419 25.6711C96.7696 25.6711 95.7409 25.2918 94.9806 24.6161C94.2415 23.9169 93.8298 22.9916 93.8298 22.0298C93.8298 21.0681 94.2415 20.1427 94.9806 19.4436C95.3553 19.1062 95.8011 18.8384 96.2922 18.6557C96.7833 18.473 97.31 18.3789 97.8419 18.3789C98.3739 18.3789 98.9006 18.473 99.3917 18.6557C99.8828 18.8384 100.329 19.1062 100.703 19.4436C101.445 20.1414 101.859 21.0672 101.859 22.0298C101.859 22.9924 101.445 23.9183 100.703 24.6161ZM95.7219 24.0349C96.285 24.536 97.0473 24.8174 97.8419 24.8174C98.6366 24.8174 99.3989 24.536 99.9619 24.0349C100.518 23.4875 100.825 22.7748 100.825 22.0356C100.825 21.2965 100.518 20.5838 99.9619 20.0364C99.3989 19.5353 98.6366 19.2539 97.8419 19.2539C97.0473 19.2539 96.285 19.5353 95.7219 20.0364C95.1662 20.5838 94.8584 21.2965 94.8584 22.0356C94.8584 22.7748 95.1662 23.4875 95.7219 24.0349ZM103.266 25.5227V18.5486H104.488L108.286 23.9768V18.5486H109.287V25.5227H108.247L104.28 19.8388V25.5227H103.266Z" fill="white" stroke="white" stroke-width="0.2" stroke-miterlimit="10"/>
<path id="Vector_2" d="M93.5872 35.695C92.495 35.6996 91.4289 35.9932 90.5233 36.5388C89.6177 37.0844 88.9133 37.8575 88.4989 38.7606C88.0845 39.6637 87.9787 40.6562 88.1949 41.6129C88.4112 42.5697 88.9397 43.4477 89.7137 44.1363C90.4878 44.8248 91.4728 45.293 92.5443 45.4817C93.6159 45.6705 94.726 45.5713 95.7345 45.1967C96.743 44.8221 97.6048 44.189 98.211 43.3771C98.8173 42.5652 99.1408 41.611 99.1408 40.635C99.1514 39.9817 99.0148 39.3331 98.7392 38.728C98.4635 38.1228 98.0544 37.5734 97.5362 37.1125C97.018 36.6516 96.4013 36.2885 95.7229 36.045C95.0445 35.8015 94.3181 35.6824 93.5872 35.695ZM93.5872 43.6339C92.9155 43.6759 92.2452 43.5363 91.6635 43.2333C91.0818 42.9303 90.6155 42.478 90.3252 41.935C90.035 41.3921 89.9342 40.7836 90.0361 40.1888C90.1379 39.594 90.4376 39.0403 90.8961 38.5998C91.3547 38.1592 91.951 37.8521 92.6075 37.7184C93.264 37.5847 93.9503 37.6306 94.5772 37.8501C95.2041 38.0696 95.7426 38.4526 96.1227 38.9492C96.5029 39.4459 96.707 40.0333 96.7087 40.635C96.7296 41.0163 96.6649 41.3974 96.5184 41.756C96.3719 42.1146 96.1466 42.4433 95.8556 42.7228C95.5647 43.0023 95.2141 43.2269 94.8245 43.3834C94.4349 43.5399 94.0142 43.625 93.5872 43.6339ZM81.4784 35.695C80.3857 35.6973 79.3182 35.989 78.4109 36.5332C77.5036 37.0774 76.7972 37.8497 76.3808 38.7526C75.9644 39.6554 75.8568 40.6484 76.0715 41.6059C76.2863 42.5634 76.8138 43.4425 77.5874 44.1322C78.3609 44.8219 79.3459 45.2913 80.4178 45.4809C81.4897 45.6706 82.6004 45.5721 83.6097 45.1979C84.619 44.8236 85.4815 44.1904 86.0884 43.3783C86.6952 42.5662 87.019 41.6115 87.019 40.635C87.0296 39.9817 86.893 39.3331 86.6174 38.728C86.3417 38.1228 85.9326 37.5734 85.4144 37.1125C84.8962 36.6516 84.2795 36.2885 83.6011 36.045C82.9227 35.8015 82.1964 35.6824 81.4654 35.695H81.4784ZM81.4784 43.6339C80.8064 43.6782 80.135 43.5407 79.5517 43.2393C78.9683 42.9379 78.5001 42.4865 78.2078 41.9439C77.9155 41.4013 77.8128 40.7927 77.913 40.1972C78.0132 39.6017 78.3117 39.0469 78.7696 38.6052C79.2275 38.1634 79.8236 37.8551 80.4804 37.7203C81.1371 37.5856 81.824 37.6306 82.4517 37.8496C83.0794 38.0686 83.6187 38.4515 83.9996 38.9483C84.3804 39.4451 84.585 40.0328 84.5869 40.635C84.6078 41.0163 84.5431 41.3974 84.3966 41.756C84.2501 42.1146 84.0248 42.4433 83.7338 42.7228C83.4429 43.0023 83.0923 43.2269 82.7027 43.3834C82.3131 43.5399 81.8924 43.625 81.4654 43.6339H81.4784ZM67.0545 37.2177V39.3099H72.6732C72.5851 40.2954 72.1267 41.2252 71.3726 41.9485C70.8104 42.4602 70.1347 42.861 69.3887 43.1253C68.6428 43.3895 67.8432 43.5113 67.0415 43.4828C65.3857 43.4828 63.7978 42.895 62.627 41.8486C61.4562 40.8023 60.7985 39.3832 60.7985 37.9035C60.7985 36.4237 61.4562 35.0046 62.627 33.9583C63.7978 32.912 65.3857 32.3241 67.0415 32.3241C68.6254 32.3011 70.1549 32.8403 71.2945 33.8236L72.9463 32.3474C72.177 31.6512 71.2591 31.1 70.247 30.7267C69.235 30.3533 68.1493 30.1653 67.0545 30.1738C65.8982 30.1336 64.7448 30.3024 63.6633 30.6701C62.5818 31.0378 61.5944 31.5968 60.7605 32.3137C59.9265 33.0306 59.263 33.8905 58.8098 34.842C58.3566 35.7935 58.123 36.817 58.123 37.8512C58.123 38.8853 58.3566 39.9088 58.8098 40.8603C59.263 41.8118 59.9265 42.6717 60.7605 43.3886C61.5944 44.1055 62.5818 44.6645 63.6633 45.0322C64.7448 45.3999 65.8982 45.5687 67.0545 45.5285C68.1678 45.5735 69.2789 45.4048 70.3131 45.0339C71.3474 44.663 72.2807 44.0984 73.0504 43.3782C74.413 42.0402 75.1405 40.2814 75.0793 38.473C75.0835 38.0325 75.04 37.5926 74.9493 37.1595L67.0545 37.2177ZM125.986 38.845C125.646 37.9531 125.012 37.1744 124.167 36.6119C123.321 36.0494 122.305 35.7296 121.251 35.695C120.54 35.6937 119.836 35.8229 119.182 36.0745C118.529 36.3261 117.94 36.6948 117.453 37.1578C116.965 37.6208 116.589 38.1683 116.348 38.7664C116.106 39.3644 116.004 40.0004 116.049 40.635C116.033 41.2847 116.164 41.9305 116.434 42.5339C116.703 43.1374 117.107 43.686 117.619 44.1472C118.131 44.6083 118.742 44.9724 119.416 45.2177C120.089 45.463 120.811 45.5845 121.538 45.575C122.447 45.5794 123.344 45.3821 124.148 45.0007C124.951 44.6193 125.636 44.0659 126.142 43.3898L124.256 42.2274C123.974 42.6468 123.576 42.9937 123.099 43.2341C122.623 43.4745 122.085 43.6002 121.538 43.599C120.974 43.6182 120.417 43.4855 119.94 43.218C119.462 42.9506 119.085 42.5609 118.858 42.0996L126.259 39.368L125.986 38.845ZM118.442 40.4955C118.416 40.136 118.47 39.7754 118.601 39.4348C118.733 39.0942 118.939 38.7805 119.208 38.5121C119.477 38.2436 119.803 38.0258 120.167 37.8714C120.532 37.717 120.927 37.6291 121.329 37.6129C121.749 37.5882 122.167 37.6741 122.533 37.8601C122.898 38.0461 123.194 38.3239 123.384 38.659L118.442 40.4955ZM112.433 45.2844H114.865V30.755H112.433V45.2844ZM108.453 36.7992H108.362C107.996 36.433 107.547 36.1401 107.045 35.9398C106.542 35.7394 105.999 35.6362 105.449 35.6369C104.028 35.6985 102.687 36.2464 101.706 37.1672C100.724 38.088 100.177 39.311 100.177 40.5827C100.177 41.8544 100.724 43.0774 101.706 43.9982C102.687 44.919 104.028 45.4669 105.449 45.5285C106 45.5368 106.546 45.437 107.05 45.2362C107.553 45.0354 108.001 44.7384 108.362 44.3662H108.44V45.0752C108.44 46.9698 107.309 47.9811 105.488 47.9811C104.881 47.9684 104.293 47.7947 103.797 47.4822C103.302 47.1696 102.921 46.7323 102.705 46.2259L100.585 47.0163C100.984 47.8839 101.664 48.6251 102.537 49.1449C103.411 49.6647 104.438 49.9395 105.488 49.9339C108.336 49.9339 110.69 48.4344 110.69 44.7846V35.9856H108.453V36.7992ZM105.67 43.6339C104.831 43.5678 104.05 43.2233 103.481 42.6682C102.913 42.1131 102.597 41.3877 102.597 40.635C102.597 39.8823 102.913 39.1569 103.481 38.6018C104.05 38.0467 104.831 37.7022 105.67 37.6361C106.086 37.6552 106.493 37.7485 106.868 37.9105C107.243 38.0725 107.578 38.2999 107.854 38.5794C108.129 38.8588 108.338 39.1847 108.47 39.5377C108.602 39.8908 108.654 40.2638 108.622 40.635C108.658 41.0078 108.608 41.3831 108.477 41.7383C108.345 42.0934 108.135 42.4211 107.858 42.7014C107.58 42.9817 107.242 43.2089 106.864 43.3692C106.486 43.5295 106.075 43.6195 105.657 43.6339H105.67ZM137.379 30.755H131.565V45.2844H133.997V39.7749H137.392C138.085 39.8194 138.781 39.7358 139.437 39.5293C140.092 39.3228 140.693 38.9979 141.202 38.5747C141.71 38.1516 142.116 37.6393 142.394 37.0699C142.671 36.5004 142.814 35.886 142.814 35.2649C142.814 34.6438 142.671 34.0294 142.394 33.46C142.116 32.8905 141.71 32.3782 141.202 31.9551C140.693 31.532 140.092 31.207 139.437 31.0005C138.781 30.7941 138.085 30.7105 137.392 30.755H137.379ZM137.379 37.7291H133.984V32.7775H137.431C138.171 32.7775 138.881 33.0401 139.404 33.5077C139.927 33.9753 140.221 34.6095 140.221 35.2707C140.221 35.932 139.927 36.5661 139.404 37.0337C138.881 37.5013 138.171 37.764 137.431 37.764L137.379 37.7291ZM152.375 35.6369C151.49 35.5896 150.608 35.7745 149.839 36.1689C149.069 36.5633 148.446 37.15 148.044 37.857L150.203 38.659C150.416 38.3084 150.738 38.0206 151.131 37.8308C151.524 37.6409 151.969 37.5571 152.414 37.5896C152.723 37.5574 153.036 37.5804 153.335 37.6574C153.633 37.7344 153.912 37.8638 154.154 38.038C154.396 38.2122 154.597 38.4277 154.745 38.672C154.893 38.9164 154.985 39.1846 155.016 39.461V39.6121C154.234 39.2425 153.363 39.0508 152.479 39.0542C150.151 39.0542 147.797 40.2166 147.797 42.3204C147.82 42.769 147.943 43.2089 148.16 43.6142C148.376 44.0194 148.682 44.3818 149.058 44.6798C149.433 44.9778 149.872 45.2054 150.348 45.3492C150.824 45.493 151.328 45.55 151.829 45.5169C152.442 45.5562 153.055 45.4474 153.604 45.202C154.153 44.9566 154.618 44.5836 154.951 44.1221H155.029V45.2844H157.37V39.6935C157.37 37.1479 155.211 35.6717 152.44 35.6717L152.375 35.6369ZM152.076 43.599C151.283 43.599 150.177 43.2387 150.177 42.3669C150.177 41.2046 151.556 40.821 152.778 40.821C153.551 40.8039 154.315 40.9725 154.99 41.3092C154.908 41.9385 154.575 42.5203 154.052 42.9475C153.528 43.3747 152.85 43.6184 152.141 43.6339L152.076 43.599ZM165.902 35.9856L163.118 42.2855H163.04L160.153 35.9856H157.552L161.883 44.7962L159.412 49.6898H161.948L168.607 35.9856H165.902ZM144.038 45.2844H146.47V30.755H144.038V45.2844Z" fill="white"/>
<path id="Vector_3" d="M18.5424 19.1771C18.1185 19.6317 17.9045 20.2137 17.9441 20.8044V46.5157C17.9045 47.1064 18.1185 47.6884 18.5424 48.143L18.6334 48.2244L34.7481 33.8344V33.4973L18.6334 19.0957L18.5424 19.1771Z" fill="url(#paint0_linear_1160_18005)"/>
<path id="Vector_4" d="M40.0806 38.6353L34.748 33.8348V33.4977L40.0806 28.6855L40.1977 28.7437L46.5837 31.9866C48.4046 32.9049 48.4046 34.416 46.5837 35.3459L40.2237 38.5772L40.0806 38.6353Z" fill="url(#paint1_linear_1160_18005)"/>
<path id="Vector_5" d="M40.2373 38.5653L34.7487 33.6602L18.543 48.1431C18.9141 48.4347 19.3876 48.6013 19.8815 48.614C20.3755 48.6267 20.8589 48.4849 21.2483 48.2129L40.2503 38.5653" fill="url(#paint2_linear_1160_18005)"/>
<path id="Vector_6" d="M40.2367 28.7546L21.2346 19.107C20.8453 18.835 20.3618 18.6931 19.8679 18.7059C19.3739 18.7186 18.9004 18.8852 18.5293 19.1767L34.7481 33.6597L40.2367 28.7546Z" fill="url(#paint3_linear_1160_18005)"/>
<path id="Vector_7" opacity="0.2" d="M40.0813 38.4609L21.2353 48.0504C20.8598 48.3013 20.4035 48.4369 19.9346 48.4369C19.4658 48.4369 19.0095 48.3013 18.634 48.0504L18.543 48.1318L18.634 48.2131C19.0087 48.4658 19.4653 48.6025 19.9346 48.6025C20.404 48.6025 20.8606 48.4658 21.2353 48.2131L40.2373 38.5655L40.0813 38.4609Z" fill="black"/>
<path id="Vector_8" opacity="0.12" d="M18.5424 47.9804C18.1185 47.5258 17.9045 46.9438 17.9441 46.3531V46.5275C17.9045 47.1182 18.1185 47.7002 18.5424 48.1548L18.6334 48.0734L18.5424 47.9804ZM46.5838 35.1712L40.0807 38.4607L40.1978 38.5653L46.5838 35.334C46.9462 35.1818 47.2572 34.947 47.4856 34.6531C47.7139 34.3592 47.8515 34.0167 47.8844 33.6602C47.8113 33.9841 47.656 34.2888 47.4305 34.5507C47.2051 34.8127 46.9154 35.0249 46.5838 35.1712Z" fill="black"/>
<path id="Vector_9" opacity="0.25" d="M21.2352 19.2696L46.5843 32.1486C46.9159 32.2948 47.2056 32.5071 47.4311 32.7691C47.6566 33.031 47.8118 33.3357 47.885 33.6596C47.852 33.3031 47.7145 32.9606 47.4861 32.6667C47.2577 32.3728 46.9467 32.138 46.5843 31.9858L21.2352 19.1069C19.4144 18.1886 17.9316 18.9558 17.9316 20.8156V20.9899C17.9707 19.1185 19.4274 18.3514 21.2352 19.2696Z" fill="white"/>
</g>
<defs>
<linearGradient id="paint0_linear_1160_18005" x1="33.3175" y1="20.537" x2="13.9356" y2="42.2243" gradientUnits="userSpaceOnUse">
<stop stop-color="#00A0FF"/>
<stop offset="0.01" stop-color="#00A1FF"/>
<stop offset="0.26" stop-color="#00BEFF"/>
<stop offset="0.51" stop-color="#00D2FF"/>
<stop offset="0.76" stop-color="#00DFFF"/>
<stop offset="1" stop-color="#00E3FF"/>
</linearGradient>
<linearGradient id="paint1_linear_1160_18005" x1="48.9638" y1="33.6604" x2="17.5018" y2="33.6604" gradientUnits="userSpaceOnUse">
<stop stop-color="#FFE000"/>
<stop offset="0.41" stop-color="#FFBD00"/>
<stop offset="0.78" stop-color="#FFA500"/>
<stop offset="1" stop-color="#FF9C00"/>
</linearGradient>
<linearGradient id="paint2_linear_1160_18005" x1="37.2589" y1="36.3336" x2="10.9686" y2="65.7383" gradientUnits="userSpaceOnUse">
<stop stop-color="#FF3A44"/>
<stop offset="1" stop-color="#C31162"/>
</linearGradient>
<linearGradient id="paint3_linear_1160_18005" x1="14.4584" y1="10.6218" x2="26.1937" y2="23.7531" gradientUnits="userSpaceOnUse">
<stop stop-color="#32A071"/>
<stop offset="0.07" stop-color="#2DA771"/>
<stop offset="0.48" stop-color="#15CF74"/>
<stop offset="0.8" stop-color="#06E775"/>
<stop offset="1" stop-color="#00F076"/>
</linearGradient>
<clipPath id="clip0_1160_18005">
<rect width="185" height="64" fill="white" transform="translate(0.5)"/>
</clipPath>
</defs>
</svg>
