<svg width="68" height="75" viewBox="0 0 68 75" fill="none" xmlns="http://www.w3.org/2000/svg">
<path d="M0.890625 25.3487L53.6638 11.5186L56.3175 21.7724L3.54431 35.6025L0.890625 25.3487Z" fill="#721E02"/>
<path d="M0.890625 25.3487L53.6638 11.5186L56.3175 21.7724L3.54431 35.6025L0.890625 25.3487Z" fill="url(#paint0_linear_637_37416)" fill-opacity="0.6"/>
<path d="M8.9321 56.4208L3.54431 35.6025L13.7342 32.9327L19.1218 53.7504L8.9321 56.4208Z" fill="#721E02"/>
<path d="M8.9321 56.4208L3.54431 35.6025L13.7342 32.9327L19.1218 53.7504L8.9321 56.4208Z" fill="url(#paint1_linear_637_37416)" fill-opacity="0.6"/>
<path d="M35.2094 43.2661C38.0953 23.7675 24.0887 -1.01367 24.0887 -1.01367L15.2904 3.81323C15.2904 3.81323 27.0229 27.8306 26.1942 41.1587C25.3655 54.4867 7.23913 49.8817 7.23913 49.8817L11.0463 64.7689C11.0463 64.7689 32.3236 62.7646 35.2094 43.2661Z" fill="#721E02"/>
<path d="M35.2094 43.2661C38.0953 23.7675 24.0887 -1.01367 24.0887 -1.01367L15.2904 3.81323C15.2904 3.81323 27.0229 27.8306 26.1942 41.1587C25.3655 54.4867 7.23913 49.8817 7.23913 49.8817L11.0463 64.7689C11.0463 64.7689 32.3236 62.7646 35.2094 43.2661Z" fill="url(#paint2_linear_637_37416)" fill-opacity="0.6"/>
<path d="M70.7526 81.8173L45.2627 15.6639L53.6638 11.5186L78.0776 63.847L70.7526 81.8173Z" fill="#721E02"/>
<path d="M70.7526 81.8173L45.2627 15.6639L53.6638 11.5186L78.0776 63.847L70.7526 81.8173Z" fill="url(#paint3_linear_637_37416)" fill-opacity="0.6"/>
<defs>
<linearGradient id="paint0_linear_637_37416" x1="-9.81613" y1="-0.500997" x2="103.091" y2="4.12102" gradientUnits="userSpaceOnUse">
<stop offset="0.20992" stop-color="#9747FF"/>
<stop offset="0.927083" stop-color="#FF8A00"/>
</linearGradient>
<linearGradient id="paint1_linear_637_37416" x1="-9.81613" y1="-0.500997" x2="103.091" y2="4.12102" gradientUnits="userSpaceOnUse">
<stop offset="0.20992" stop-color="#9747FF"/>
<stop offset="0.927083" stop-color="#FF8A00"/>
</linearGradient>
<linearGradient id="paint2_linear_637_37416" x1="-9.81613" y1="-0.500997" x2="103.091" y2="4.12102" gradientUnits="userSpaceOnUse">
<stop offset="0.20992" stop-color="#9747FF"/>
<stop offset="0.927083" stop-color="#FF8A00"/>
</linearGradient>
<linearGradient id="paint3_linear_637_37416" x1="-9.81613" y1="-0.500997" x2="103.091" y2="4.12102" gradientUnits="userSpaceOnUse">
<stop offset="0.20992" stop-color="#9747FF"/>
<stop offset="0.927083" stop-color="#FF8A00"/>
</linearGradient>
</defs>
</svg>
