<svg width="252" height="64" viewBox="0 0 252 64" fill="none" xmlns="http://www.w3.org/2000/svg">
<g clip-path="url(#clip0_637_37168)">
<path d="M6.30273 19.9875L56.1702 7.00067L58.6777 16.6293L8.81031 29.6162L6.30273 19.9875Z" fill="#721E02"/>
<path d="M6.30273 19.9875L56.1702 7.00067L58.6777 16.6293L8.81031 29.6162L6.30273 19.9875Z" fill="url(#paint0_linear_637_37168)" fill-opacity="0.6"/>
<path d="M13.9014 49.1653L8.81031 29.6162L18.4391 27.1092L23.5301 46.6577L13.9014 49.1653Z" fill="#721E02"/>
<path d="M13.9014 49.1653L8.81031 29.6162L18.4391 27.1092L23.5301 46.6577L13.9014 49.1653Z" fill="url(#paint1_linear_637_37168)" fill-opacity="0.6"/>
<path d="M38.7319 36.8126C41.4588 18.5028 28.2235 -4.76758 28.2235 -4.76758L19.9096 -0.23496C19.9096 -0.23496 30.9961 22.3182 30.2131 34.8337C29.43 47.3492 12.3017 43.0248 12.3017 43.0248L15.8993 57.0045C15.8993 57.0045 36.005 55.1223 38.7319 36.8126Z" fill="#721E02"/>
<path d="M38.7319 36.8126C41.4588 18.5028 28.2235 -4.76758 28.2235 -4.76758L19.9096 -0.23496C19.9096 -0.23496 30.9961 22.3182 30.2131 34.8337C29.43 47.3492 12.3017 43.0248 12.3017 43.0248L15.8993 57.0045C15.8993 57.0045 36.005 55.1223 38.7319 36.8126Z" fill="url(#paint2_linear_637_37168)" fill-opacity="0.6"/>
<path d="M72.318 73.0134L48.2316 10.8932L56.1702 7.00067L79.2397 56.1387L72.318 73.0134Z" fill="#721E02"/>
<path d="M72.318 73.0134L48.2316 10.8932L56.1702 7.00067L79.2397 56.1387L72.318 73.0134Z" fill="url(#paint3_linear_637_37168)" fill-opacity="0.6"/>
</g>
<path d="M94.5052 20.1267L86.7396 31.0977L94.5382 43.2583H89.7798L83.3029 32.9482H80.1967V43.2583H76V20.1267H80.1967V29.3793H83.4351L89.8459 20.1267H94.5052Z" fill="#FFAA47"/>
<path d="M100.454 20.1267L105.84 32.2212L110.863 20.1267H115.225L105.014 43.2583H100.883L103.924 36.4179L95.9927 20.1267H100.454Z" fill="#FFAA47"/>
<path d="M118.465 43.2583V20.1267H133.17V23.9269H122.397V29.2141H127.85C132.278 29.2141 135.153 32.089 135.153 36.2197C135.153 40.3833 132.311 43.2583 127.916 43.2583H118.465ZM127.552 32.8491H122.397V39.6233H127.552C129.601 39.6233 131.121 38.3015 131.121 36.2197C131.121 34.1709 129.601 32.8491 127.552 32.8491Z" fill="#FFAA47"/>
<path d="M150.852 34.3361L147.614 24.753L144.375 34.3361H150.852ZM137.105 43.2583L145.499 20.1267H149.828L158.221 43.2583H153.892L152.075 37.8719H143.153L141.335 43.2583H137.105Z" fill="#FFAA47"/>
<path d="M171.527 38.1693V25.2157C167.562 25.3479 164.72 27.9584 164.72 31.7255C164.72 35.4927 167.562 38.0702 171.527 38.1693ZM175.426 25.2157V38.1693C179.392 38.0702 182.234 35.4266 182.234 31.6925C182.234 27.9584 179.392 25.3148 175.426 25.2157ZM175.426 44.1174H171.527V41.9365C164.753 41.573 160.622 37.4093 160.622 31.6925C160.622 25.9757 164.753 21.8451 171.527 21.4485V19.2676H175.426V21.4485C182.201 21.8451 186.331 25.9757 186.331 31.6925C186.331 37.4093 182.201 41.5399 175.426 41.9365V44.1174Z" fill="#FFAA47"/>
<path d="M193.199 20.1267L198.586 32.2212L203.608 20.1267H207.97L197.759 43.2583H193.629L196.669 36.4179L188.738 20.1267H193.199Z" fill="#FFAA47"/>
<path d="M220.496 23.7617H215.473V31.6264H220.496C222.875 31.6264 224.461 30.0072 224.461 27.6941C224.461 25.3809 222.875 23.7617 220.496 23.7617ZM215.473 35.2614V43.2583H211.508V20.1267H220.727C225.354 20.1267 228.526 23.1669 228.526 27.6941C228.526 32.2543 225.354 35.2614 220.727 35.2614H215.473Z" fill="#FFAA47"/>
<path d="M244.275 34.3361L241.037 24.753L237.798 34.3361H244.275ZM230.529 43.2583L238.922 20.1267H243.251L251.644 43.2583H247.315L245.498 37.8719H236.576L234.758 43.2583H230.529Z" fill="#FFAA47"/>
<defs>
<linearGradient id="paint0_linear_637_37168" x1="-3.81449" y1="-4.28616" x2="102.874" y2="0.108742" gradientUnits="userSpaceOnUse">
<stop offset="0.20992" stop-color="#9747FF"/>
<stop offset="0.927083" stop-color="#FF8A00"/>
</linearGradient>
<linearGradient id="paint1_linear_637_37168" x1="-3.81449" y1="-4.28616" x2="102.874" y2="0.108742" gradientUnits="userSpaceOnUse">
<stop offset="0.20992" stop-color="#9747FF"/>
<stop offset="0.927083" stop-color="#FF8A00"/>
</linearGradient>
<linearGradient id="paint2_linear_637_37168" x1="-3.81449" y1="-4.28616" x2="102.874" y2="0.108742" gradientUnits="userSpaceOnUse">
<stop offset="0.20992" stop-color="#9747FF"/>
<stop offset="0.927083" stop-color="#FF8A00"/>
</linearGradient>
<linearGradient id="paint3_linear_637_37168" x1="-3.81449" y1="-4.28616" x2="102.874" y2="0.108742" gradientUnits="userSpaceOnUse">
<stop offset="0.20992" stop-color="#9747FF"/>
<stop offset="0.927083" stop-color="#FF8A00"/>
</linearGradient>
<clipPath id="clip0_637_37168">
<rect width="63.596" height="63.1986" fill="white" transform="translate(0.304688 0.400391)"/>
</clipPath>
</defs>
</svg>
