<svg width="33" height="32" viewBox="0 0 33 32" fill="none" xmlns="http://www.w3.org/2000/svg">
<g id="icons">
<path id="feather" fill-rule="evenodd" clip-rule="evenodd" d="M15.3853 4.05724C17.1365 2.30606 19.5116 1.32227 21.9881 1.32227C24.4647 1.32227 26.8398 2.30606 28.5909 4.05724C30.3421 5.80841 31.3259 8.18351 31.3259 10.66C31.3259 13.1361 30.3425 15.5108 28.592 17.2618L28.5909 17.2629L27.0251 18.8334H15.478L22.8197 11.4917C23.2754 11.0361 23.2754 10.2974 22.8197 9.84175C22.3641 9.38614 21.6254 9.38614 21.1698 9.84175L11.8365 19.1751C11.7246 19.2869 11.6402 19.4159 11.5833 19.5535C11.5263 19.691 11.4948 19.8419 11.4948 20C11.4948 20.1582 11.5263 20.3091 11.5833 20.4466C11.6394 20.5822 11.7221 20.7093 11.8315 20.8199L11.8415 20.83C11.9522 20.9394 12.0793 21.0221 12.2149 21.0782C12.3524 21.1352 12.5033 21.1667 12.6615 21.1667H24.6986L19.6057 26.2748C19.3555 26.5257 19.0158 26.6667 18.6615 26.6667H7.409L4.03523 30.0405C3.64471 30.431 3.01154 30.431 2.62102 30.0405C2.23049 29.65 2.23049 29.0168 2.62102 28.6263L5.99479 25.2525V14C5.99479 13.6464 6.13527 13.3073 6.38532 13.0572L15.3853 4.05724Z" fill="url(#paint0_linear_637_36929)" fill-opacity="0.9"/>
</g>
<defs>
<linearGradient id="paint0_linear_637_36929" x1="16.827" y1="1.32227" x2="16.827" y2="30.3334" gradientUnits="userSpaceOnUse">
<stop stop-color="#FF8A00"/>
<stop offset="0.510417" stop-color="white"/>
<stop offset="1" stop-color="#D0ABFF"/>
</linearGradient>
</defs>
</svg>
