<svg width="1255" height="602" viewBox="0 0 1255 602" fill="none" xmlns="http://www.w3.org/2000/svg">
<path fill-rule="evenodd" clip-rule="evenodd" d="M671.399 329.65H664.492V331.247L665.052 332.78L665.923 334.122L667.106 335.271L668.474 336.102L669.968 336.613H671.212V329.65H671.399ZM671.399 329.65H678.306V328.053L677.746 326.52L676.875 325.179L675.692 324.029L674.323 323.198L672.83 322.688H671.586V329.65H671.399Z" fill="black"/>
<path fill-rule="evenodd" clip-rule="evenodd" d="M526.911 426.42H520.004V428.017L520.564 429.55L521.435 430.891L522.617 432.041L523.986 432.871L525.479 433.382H526.724V426.292L526.911 426.42ZM526.911 426.42H533.817V424.823L533.257 423.29L532.386 421.948L531.204 420.798L529.835 419.968L528.342 419.457H527.097V426.547L526.911 426.42Z" fill="black"/>
<path d="M329.847 526.263C330.985 512.245 329.278 498.138 324.833 484.832C320.389 471.526 313.304 459.312 304.026 448.961C294.748 438.61 283.479 430.347 270.932 424.695C258.385 419.043 244.832 416.125 231.13 416.125C217.428 416.125 203.875 419.043 191.327 424.695C178.78 430.347 167.511 438.61 158.233 448.961C148.956 459.312 141.871 471.526 137.426 484.832C132.982 498.138 131.275 512.245 132.413 526.263" stroke="#FFAA47" stroke-linecap="round" stroke-linejoin="round"/>
<path d="M132.42 526.264H23.5918" stroke="#FFAA47" stroke-linecap="round" stroke-linejoin="round"/>
<path d="M17.8691 520.386V493.047" stroke="#FFAA47" stroke-linecap="round" stroke-linejoin="round"/>
<path d="M15.1852 488.063L3.67383 480.59" stroke="#FFAA47" stroke-linecap="round" stroke-linejoin="round"/>
<path d="M1 475.603V451.969" stroke="#FFAA47" stroke-linecap="round" stroke-linejoin="round"/>
<path d="M211.441 395.567V266.727" stroke="#FFAA47" stroke-linecap="round" stroke-linejoin="round"/>
<path d="M45.7949 397.993L312.172 138.461" stroke="#FFAA47" stroke-linecap="round" stroke-linejoin="round"/>
<path d="M6.78516 446.094H161.099" stroke="#FFAA47" stroke-linecap="round" stroke-linejoin="round"/>
<path d="M276.085 408.277C252.281 394.629 224.264 390.944 197.878 397.989C171.491 405.035 148.774 422.268 134.465 446.092" stroke="#FFAA47" stroke-linecap="round" stroke-linejoin="round"/>
<path d="M340.306 484.484C322.583 456.628 301.393 431.268 277.273 409.045" stroke="#FFAA47" stroke-linecap="round" stroke-linejoin="round"/>
<path d="M340.299 484.488C341.252 488.236 343.337 491.577 346.255 494.033C349.172 496.489 352.773 497.933 356.539 498.158" stroke="#FFAA47" stroke-linecap="round" stroke-linejoin="round"/>
<path d="M356.547 498.156H445.65" stroke="#FFAA47" stroke-linecap="round" stroke-linejoin="round"/>
<path d="M451.438 492.534L457.1 364.588" stroke="#FFAA47" stroke-linecap="round" stroke-linejoin="round"/>
<path d="M149.279 361.588L457.098 364.59" stroke="#FFAA47" stroke-linecap="round" stroke-linejoin="round"/>
<path d="M457.102 364.59L491.075 363.121" stroke="#FFAA47" stroke-linecap="round" stroke-linejoin="round"/>
<path d="M168.82 350.92L492.568 344.852" stroke="#FFAA47" stroke-linecap="round" stroke-linejoin="round"/>
<path d="M319.834 298.856L330.723 156.027" stroke="#FFAA47" stroke-linecap="round" stroke-linejoin="round"/>
<path d="M342.353 148.623L332.023 296.946" stroke="#FFAA47" stroke-linecap="round" stroke-linejoin="round"/>
<path d="M334.271 299.432H407.508" stroke="#FFAA47" stroke-linecap="round" stroke-linejoin="round"/>
<path d="M436.246 277.586L446.015 159.988" stroke="#FFAA47" stroke-linecap="round" stroke-linejoin="round"/>
<path d="M344.602 146.45L431.963 144.598" stroke="#FFAA47" stroke-linecap="round" stroke-linejoin="round"/>
<path d="M317.653 301.029L242.674 304.543" stroke="#FFAA47" stroke-linecap="round" stroke-linejoin="round"/>
<path d="M410.434 299.116C419.037 297.235 426.849 292.633 432.772 285.957" stroke="#FFAA47" stroke-linecap="round" stroke-linejoin="round"/>
<path d="M232.842 298.857C235.486 301.76 238.943 303.746 242.735 304.543" stroke="#FFAA47" stroke-linecap="round" stroke-linejoin="round"/>
<path d="M327.051 153.924C290.656 181.703 258.524 214.927 231.725 252.486" stroke="#FFAA47" stroke-linecap="round" stroke-linejoin="round"/>
<path d="M229.051 260.85V289.147" stroke="#FFAA47" stroke-linecap="round" stroke-linejoin="round"/>
<path d="M446.014 159.991C446.326 156.268 445.194 152.569 442.864 149.698C440.533 146.827 437.193 145.017 433.57 144.66H432.139" stroke="#FFAA47" stroke-linecap="round" stroke-linejoin="round"/>
<path d="M344.594 146.445C344.025 146.459 343.481 146.689 343.067 147.09C342.654 147.491 342.399 148.035 342.354 148.617" stroke="#FFAA47" stroke-linecap="round" stroke-linejoin="round"/>
<path d="M332.032 296.943C332.006 297.254 332.041 297.567 332.133 297.863C332.226 298.16 332.375 298.435 332.572 298.673C332.768 298.91 333.009 299.105 333.279 299.247C333.549 299.389 333.844 299.474 334.147 299.498" stroke="#FFAA47" stroke-linecap="round" stroke-linejoin="round"/>
<path d="M317.658 301.029C318.216 301 318.745 300.764 319.145 300.364C319.546 299.965 319.791 299.429 319.836 298.857" stroke="#FFAA47" stroke-linecap="round" stroke-linejoin="round"/>
<path d="M330.724 156.03C330.764 155.575 330.676 155.117 330.468 154.713C330.261 154.309 329.943 153.975 329.555 153.752C329.167 153.529 328.724 153.426 328.279 153.456C327.835 153.486 327.409 153.648 327.053 153.922" stroke="#FFAA47" stroke-linecap="round" stroke-linejoin="round"/>
<path d="M876.051 526.26C876.051 521.977 877.288 517.79 879.606 514.229C881.924 510.668 885.218 507.893 889.072 506.254C892.927 504.615 897.168 504.186 901.26 505.022C905.351 505.857 909.11 507.919 912.06 510.948C915.01 513.976 917.019 517.835 917.833 522.035C918.647 526.236 918.229 530.59 916.632 534.547C915.036 538.503 912.332 541.885 908.863 544.265C905.395 546.644 901.316 547.914 897.144 547.914C891.55 547.914 886.185 545.633 882.229 541.572C878.273 537.511 876.051 532.003 876.051 526.26Z" stroke="#FFAA47" stroke-linecap="round" stroke-linejoin="round"/>
<path d="M333.52 139.809C288.92 173.547 248.945 213.295 214.674 257.981" stroke="#FFAA47" stroke-linecap="round" stroke-linejoin="round"/>
<path d="M341.053 137.123L442.601 132.141" stroke="#FFAA47" stroke-linecap="round" stroke-linejoin="round"/>
<path d="M337.569 137.25C337.12 137.271 336.688 137.427 336.324 137.697" stroke="#FFAA47" stroke-linecap="round" stroke-linejoin="round"/>
<path d="M212.625 260.275C211.827 261.313 211.389 262.594 211.381 263.916" stroke="#FFAA47" stroke-linecap="round" stroke-linejoin="round"/>
<path d="M214.67 257.98C212.734 260.489 211.682 263.595 211.684 266.796" stroke="#FFAA47" stroke-linecap="round" stroke-linejoin="round"/>
<path d="M341.047 137.119C338.328 137.253 335.709 138.209 333.518 139.866" stroke="#FFAA47" stroke-linecap="round" stroke-linejoin="round"/>
<path d="M229.051 289.152C229.047 292.758 230.382 296.23 232.784 298.862" stroke="#FFAA47" stroke-linecap="round" stroke-linejoin="round"/>
<path d="M231.726 252.484C229.992 254.911 229.055 257.842 229.051 260.852" stroke="#FFAA47" stroke-linecap="round" stroke-linejoin="round"/>
<path d="M432.455 285.954C434.503 283.642 435.75 280.7 436.002 277.586" stroke="#FFAA47" stroke-linecap="round" stroke-linejoin="round"/>
<path d="M407.566 299.432C408.518 299.533 409.477 299.533 410.429 299.432" stroke="#FFAA47" stroke-linecap="round" stroke-linejoin="round"/>
<path d="M457.102 364.588V146.32" stroke="#FFAA47" stroke-linecap="round" stroke-linejoin="round"/>
<path d="M457.342 146.321C457.342 142.56 455.887 138.953 453.296 136.294C450.706 133.635 447.192 132.141 443.529 132.141H442.906" stroke="#FFAA47" stroke-linecap="round" stroke-linejoin="round"/>
<path d="M442.602 132.139L483.918 130.926" stroke="#FFAA47" stroke-linecap="round" stroke-linejoin="round"/>
<path d="M45.8005 397.998C42.0817 413.727 40.7594 429.953 41.8805 446.097" stroke="#FFAA47" stroke-linecap="round" stroke-linejoin="round"/>
<path d="M62.7818 446.097C66.4843 442.302 69.0553 437.5 70.1927 432.257C71.3302 427.014 70.9871 421.546 69.2036 416.496C67.4201 411.446 64.2703 407.024 60.1239 403.747C55.9776 400.47 51.0067 398.476 45.7949 397.998" stroke="#FFAA47" stroke-linecap="round" stroke-linejoin="round"/>
<path d="M29.1284 378.58C22.9817 400.551 19.4097 423.195 18.4883 446.034" stroke="#FFAA47" stroke-linecap="round" stroke-linejoin="round"/>
<path d="M157.241 274.648C111.701 303.808 69.2618 337.785 30.6172 376.021" stroke="#FFAA47" stroke-linecap="round" stroke-linejoin="round"/>
<path d="M32.1109 374.363C30.3795 376.128 29.1343 378.332 28.502 380.751" stroke="#FFAA47" stroke-linecap="round" stroke-linejoin="round"/>
<path d="M45.7996 397.998L24.8926 395.635" stroke="#FFAA47" stroke-linecap="round" stroke-linejoin="round"/>
<path d="M211.445 300.904H145.426" stroke="#FFAA47" stroke-linecap="round" stroke-linejoin="round"/>
<path d="M245.291 256.763C244.601 254.741 243.201 253.056 241.366 252.035C239.531 251.015 237.392 250.732 235.365 251.242C233.337 251.753 231.568 253.019 230.401 254.795C229.234 256.572 228.753 258.73 229.051 260.851" stroke="#FFAA47" stroke-linecap="round" stroke-linejoin="round"/>
<path d="M229.051 289.15C229.144 290.289 229.465 291.397 229.994 292.403C230.523 293.409 231.248 294.291 232.125 294.996C233.002 295.701 234.011 296.212 235.089 296.498C236.167 296.784 237.291 296.838 238.391 296.657C239.49 296.477 240.542 296.065 241.479 295.447C242.416 294.83 243.219 294.021 243.838 293.07C244.457 292.12 244.877 291.048 245.074 289.923C245.27 288.798 245.238 287.643 244.98 286.531" stroke="#FFAA47" stroke-linecap="round" stroke-linejoin="round"/>
<path d="M245.287 256.764V286.53" stroke="#FFAA47" stroke-linecap="round" stroke-linejoin="round"/>
<path d="M312.185 138.463L304.096 132.203" stroke="#FFAA47" stroke-linecap="round" stroke-linejoin="round"/>
<path d="M312.178 138.461L322.942 147.979" stroke="#FFAA47" stroke-linecap="round" stroke-linejoin="round"/>
<path d="M304.087 132.203C254.308 178.748 205.339 226.23 157.178 274.649" stroke="#FFAA47" stroke-linecap="round" stroke-linejoin="round"/>
<path d="M332.897 113.871C322.543 118.456 312.933 124.638 304.398 132.204" stroke="#FFAA47" stroke-linecap="round" stroke-linejoin="round"/>
<path d="M347.516 109.467C342.26 109.596 337.122 111.091 332.582 113.81" stroke="#FFAA47" stroke-linecap="round" stroke-linejoin="round"/>
<path d="M347.518 109.467H473.644" stroke="#FFAA47" stroke-linecap="round" stroke-linejoin="round"/>
<path d="M6.78671 446.094C5.25197 446.094 3.78009 446.719 2.69486 447.834C1.60964 448.948 1 450.459 1 452.034" stroke="#FFAA47" stroke-linecap="round" stroke-linejoin="round"/>
<path d="M1 475.605C1.00433 476.599 1.25152 477.576 1.71897 478.447C2.18642 479.317 2.85914 480.054 3.67555 480.588" stroke="#FFAA47" stroke-linecap="round" stroke-linejoin="round"/>
<path d="M17.8572 493.045C17.8529 492.051 17.6057 491.074 17.1382 490.204C16.6708 489.333 15.9981 488.597 15.1816 488.062" stroke="#FFAA47" stroke-linecap="round" stroke-linejoin="round"/>
<path d="M17.8691 520.381C17.8691 521.956 18.4788 523.467 19.564 524.582C20.6492 525.696 22.1212 526.322 23.6559 526.322" stroke="#FFAA47" stroke-linecap="round" stroke-linejoin="round"/>
<path d="M132.41 526.264H148.713" stroke="#FFAA47" stroke-linecap="round" stroke-linejoin="round"/>
<path d="M329.852 526.264H309.381" stroke="#FFAA47" stroke-linecap="round" stroke-linejoin="round"/>
<path d="M307.766 542.994H336.513" stroke="#FFAA47" stroke-linecap="round" stroke-linejoin="round"/>
<path d="M336.508 542.995V526.195" stroke="#FFAA47" stroke-linecap="round" stroke-linejoin="round"/>
<path d="M329.848 526.264H392.693" stroke="#FFAA47" stroke-linecap="round" stroke-linejoin="round"/>
<path d="M392.689 526.264V532.651" stroke="#FFAA47" stroke-linecap="round" stroke-linejoin="round"/>
<path d="M392.697 532.652H336.447" stroke="#FFAA47" stroke-linecap="round" stroke-linejoin="round"/>
<path d="M336.508 542.994H340.428" stroke="#FFAA47" stroke-linecap="round" stroke-linejoin="round"/>
<path d="M340.432 542.994V547.018" stroke="#FFAA47" stroke-linecap="round" stroke-linejoin="round"/>
<path d="M340.432 547.023H392.263" stroke="#FFAA47" stroke-linecap="round" stroke-linejoin="round"/>
<path d="M502.772 506.203H329.045" stroke="#FFAA47" stroke-linecap="round" stroke-linejoin="round"/>
<path d="M435.688 538.016H502.266" stroke="#FFAA47" stroke-linecap="round" stroke-linejoin="round"/>
<path d="M502.273 538.017V506.078" stroke="#FFAA47" stroke-linecap="round" stroke-linejoin="round"/>
<path d="M502.771 506.205V163.312" stroke="#FFAA47" stroke-linecap="round" stroke-linejoin="round"/>
<path d="M502.771 163.565C503.051 153.674 501.089 143.853 497.04 134.874C492.99 125.895 486.965 118.004 479.438 111.824" stroke="#FFAA47" stroke-linecap="round" stroke-linejoin="round"/>
<path d="M392.266 547.023V551.239" stroke="#FFAA47" stroke-linecap="round" stroke-linejoin="round"/>
<path d="M392.266 551.234H435.822" stroke="#FFAA47" stroke-linecap="round" stroke-linejoin="round"/>
<path d="M435.688 538.016V551.238" stroke="#FFAA47" stroke-linecap="round" stroke-linejoin="round"/>
<path d="M561.508 526.264H710.408" stroke="#FFAA47" stroke-linecap="round" stroke-linejoin="round"/>
<path d="M724.223 512.081V469.092" stroke="#FFAA47" stroke-linecap="round" stroke-linejoin="round"/>
<path d="M710.408 454.846H561.508" stroke="#FFAA47" stroke-linecap="round" stroke-linejoin="round"/>
<path d="M547.689 512.081V469.092" stroke="#FFAA47" stroke-linecap="round" stroke-linejoin="round"/>
<path d="M502.771 506.203H547.697" stroke="#FFAA47" stroke-linecap="round" stroke-linejoin="round"/>
<path d="M502.771 465.512H547.697" stroke="#FFAA47" stroke-linecap="round" stroke-linejoin="round"/>
<path d="M502.273 532.01H547.634" stroke="#FFAA47" stroke-linecap="round" stroke-linejoin="round"/>
<path d="M547.689 512.078V531.944" stroke="#FFAA47" stroke-linecap="round" stroke-linejoin="round"/>
<path d="M520.32 306.27H1254.31" stroke="#FFAA47" stroke-linecap="round" stroke-linejoin="round"/>
<path d="M1254.3 306.27V401.383" stroke="#FFAA47" stroke-linecap="round" stroke-linejoin="round"/>
<path d="M1254.31 401.379H520.32" stroke="#FFAA47" stroke-linecap="round" stroke-linejoin="round"/>
<path d="M520.32 306.27V401.383" stroke="#FFAA47" stroke-linecap="round" stroke-linejoin="round"/>
<path d="M977.406 526.264H1085.3" stroke="#FFAA47" stroke-linecap="round" stroke-linejoin="round"/>
<path d="M1085.3 526.262V502.436" stroke="#FFAA47" stroke-linecap="round" stroke-linejoin="round"/>
<path d="M1158.11 506.202V432.232" stroke="#FFAA47" stroke-linecap="round" stroke-linejoin="round"/>
<path d="M1241.29 432.236V401.447" stroke="#FFAA47" stroke-linecap="round" stroke-linejoin="round"/>
<path d="M952.334 401.379L1003.05 483.78" stroke="#FFAA47" stroke-linecap="round" stroke-linejoin="round"/>
<path d="M1003.04 483.783L1020.9 488.382" stroke="#FFAA47" stroke-linecap="round" stroke-linejoin="round"/>
<path d="M968.947 401.379L987.863 437.597" stroke="#FFAA47" stroke-linecap="round" stroke-linejoin="round"/>
<path d="M987.857 437.598L1020.9 488.38" stroke="#FFAA47" stroke-linecap="round" stroke-linejoin="round"/>
<path d="M1004.41 463.02L1158.1 462.893" stroke="#FFAA47" stroke-linecap="round" stroke-linejoin="round"/>
<path d="M798.574 463.659L848.042 401.379" stroke="#FFAA47" stroke-linecap="round" stroke-linejoin="round"/>
<path d="M786.07 462.254L834.169 401.379" stroke="#FFAA47" stroke-linecap="round" stroke-linejoin="round"/>
<path d="M786.07 462.256L798.577 463.661" stroke="#FFAA47" stroke-linecap="round" stroke-linejoin="round"/>
<path d="M820.051 549.77L705.436 526.264" stroke="#FFAA47" stroke-linecap="round" stroke-linejoin="round"/>
<path d="M817.187 534.695L723.105 517.768" stroke="#FFAA47" stroke-linecap="round" stroke-linejoin="round"/>
<path d="M502.771 432.232H810.092" stroke="#FFAA47" stroke-linecap="round" stroke-linejoin="round"/>
<path d="M724.162 465.512H798.581" stroke="#FFAA47" stroke-linecap="round" stroke-linejoin="round"/>
<path d="M798.574 465.512H844.619" stroke="#FFAA47" stroke-linecap="round" stroke-linejoin="round"/>
<path d="M948.531 465.512H990.034" stroke="#FFAA47" stroke-linecap="round" stroke-linejoin="round"/>
<path d="M589.191 306.27V385.285" stroke="#FFAA47" stroke-linecap="round" stroke-linejoin="round"/>
<path d="M594.916 391.162H615.636" stroke="#FFAA47" stroke-linecap="round" stroke-linejoin="round"/>
<path d="M621.434 385.285V306.27" stroke="#FFAA47" stroke-linecap="round" stroke-linejoin="round"/>
<path d="M589.191 385.285C589.191 386.861 589.801 388.372 590.886 389.486C591.971 390.6 593.443 391.226 594.978 391.226" stroke="#FFAA47" stroke-linecap="round" stroke-linejoin="round"/>
<path d="M615.637 391.163C616.397 391.163 617.149 391.009 617.851 390.711C618.553 390.412 619.191 389.975 619.729 389.423C620.266 388.872 620.692 388.217 620.983 387.496C621.274 386.775 621.423 386.003 621.423 385.223" stroke="#FFAA47" stroke-linecap="round" stroke-linejoin="round"/>
<path d="M854.576 306.27V385.285" stroke="#FFAA47" stroke-linecap="round" stroke-linejoin="round"/>
<path d="M860.361 391.162H881.082" stroke="#FFAA47" stroke-linecap="round" stroke-linejoin="round"/>
<path d="M886.807 385.285V306.27" stroke="#FFAA47" stroke-linecap="round" stroke-linejoin="round"/>
<path d="M881.082 391.163C882.617 391.163 884.089 390.537 885.174 389.423C886.259 388.309 886.869 386.798 886.869 385.223" stroke="#FFAA47" stroke-linecap="round" stroke-linejoin="round"/>
<path d="M854.576 385.285C854.576 386.861 855.186 388.372 856.271 389.486C857.356 390.6 858.828 391.226 860.363 391.226" stroke="#FFAA47" stroke-linecap="round" stroke-linejoin="round"/>
<path d="M1144.04 306.27V385.285" stroke="#FFAA47" stroke-linecap="round" stroke-linejoin="round"/>
<path d="M1149.76 391.162H1170.54" stroke="#FFAA47" stroke-linecap="round" stroke-linejoin="round"/>
<path d="M1176.28 385.285V306.27" stroke="#FFAA47" stroke-linecap="round" stroke-linejoin="round"/>
<path d="M1170.55 391.163C1172.09 391.163 1173.56 390.537 1174.64 389.423C1175.73 388.309 1176.34 386.798 1176.34 385.223" stroke="#FFAA47" stroke-linecap="round" stroke-linejoin="round"/>
<path d="M1144.04 385.285C1144.04 386.861 1144.64 388.372 1145.73 389.486C1146.82 390.6 1148.29 391.226 1149.82 391.226" stroke="#FFAA47" stroke-linecap="round" stroke-linejoin="round"/>
<path d="M534.941 317.766V389.691" stroke="#FFAA47" stroke-linecap="round" stroke-linejoin="round"/>
<path d="M534.941 317.766H589.2" stroke="#FFAA47" stroke-opacity="0.3" stroke-linecap="round" stroke-linejoin="round"/>
<path d="M534.941 324.922H589.2" stroke="#FFAA47" stroke-opacity="0.3" stroke-linecap="round" stroke-linejoin="round"/>
<path d="M534.941 332.014H589.262" stroke="#FFAA47" stroke-opacity="0.3" stroke-linecap="round" stroke-linejoin="round"/>
<path d="M534.941 339.1H589.262" stroke="#FFAA47" stroke-opacity="0.3" stroke-linecap="round" stroke-linejoin="round"/>
<path d="M534.941 346.193H589.262" stroke="#FFAA47" stroke-opacity="0.3" stroke-linecap="round" stroke-linejoin="round"/>
<path d="M534.941 353.727H589.262" stroke="#FFAA47" stroke-opacity="0.3" stroke-linecap="round" stroke-linejoin="round"/>
<path d="M534.941 360.371H589.262" stroke="#FFAA47" stroke-opacity="0.3" stroke-linecap="round" stroke-linejoin="round"/>
<path d="M534.941 367.463H589.2" stroke="#FFAA47" stroke-opacity="0.3" stroke-linecap="round" stroke-linejoin="round"/>
<path d="M534.941 374.557H589.2" stroke="#FFAA47" stroke-opacity="0.3" stroke-linecap="round" stroke-linejoin="round"/>
<path d="M534.941 381.645H589.262" stroke="#FFAA47" stroke-opacity="0.3" stroke-linecap="round" stroke-linejoin="round"/>
<path d="M621.434 317.766H854.584" stroke="#FFAA47" stroke-opacity="0.3" stroke-linecap="round" stroke-linejoin="round"/>
<path d="M621.434 381.645H854.584" stroke="#FFAA47" stroke-opacity="0.3" stroke-linecap="round" stroke-linejoin="round"/>
<path d="M621.434 324.922H854.584" stroke="#FFAA47" stroke-opacity="0.3" stroke-linecap="round" stroke-linejoin="round"/>
<path d="M621.434 332.014H854.584" stroke="#FFAA47" stroke-opacity="0.3" stroke-linecap="round" stroke-linejoin="round"/>
<path d="M621.434 339.1H854.584" stroke="#FFAA47" stroke-opacity="0.3" stroke-linecap="round" stroke-linejoin="round"/>
<path d="M621.434 345.811H854.584" stroke="#FFAA47" stroke-opacity="0.3" stroke-linecap="round" stroke-linejoin="round"/>
<path d="M621.434 353.285H854.584" stroke="#FFAA47" stroke-opacity="0.3" stroke-linecap="round" stroke-linejoin="round"/>
<path d="M621.434 360.371H854.584" stroke="#FFAA47" stroke-opacity="0.3" stroke-linecap="round" stroke-linejoin="round"/>
<path d="M621.434 367.463H854.584" stroke="#FFAA47" stroke-opacity="0.3" stroke-linecap="round" stroke-linejoin="round"/>
<path d="M621.434 374.557H854.584" stroke="#FFAA47" stroke-opacity="0.3" stroke-linecap="round" stroke-linejoin="round"/>
<path d="M886.807 317.766H1144.04" stroke="#FFAA47" stroke-opacity="0.3" stroke-linecap="round" stroke-linejoin="round"/>
<path d="M886.807 324.922H1144.04" stroke="#FFAA47" stroke-opacity="0.3" stroke-linecap="round" stroke-linejoin="round"/>
<path d="M886.807 332.014H1144.04" stroke="#FFAA47" stroke-opacity="0.3" stroke-linecap="round" stroke-linejoin="round"/>
<path d="M886.807 339.1H1144.04" stroke="#FFAA47" stroke-opacity="0.3" stroke-linecap="round" stroke-linejoin="round"/>
<path d="M886.807 345.811H1144.04" stroke="#FFAA47" stroke-opacity="0.3" stroke-linecap="round" stroke-linejoin="round"/>
<path d="M886.807 353.285H1144.04" stroke="#FFAA47" stroke-opacity="0.3" stroke-linecap="round" stroke-linejoin="round"/>
<path d="M886.807 360.371H1144.04" stroke="#FFAA47" stroke-opacity="0.3" stroke-linecap="round" stroke-linejoin="round"/>
<path d="M886.807 367.463H1144.04" stroke="#FFAA47" stroke-opacity="0.3" stroke-linecap="round" stroke-linejoin="round"/>
<path d="M886.807 374.557H1144.04" stroke="#FFAA47" stroke-opacity="0.3" stroke-linecap="round" stroke-linejoin="round"/>
<path d="M886.807 381.645H1143.91" stroke="#FFAA47" stroke-opacity="0.3" stroke-linecap="round" stroke-linejoin="round"/>
<path d="M1176.28 317.766H1240.43" stroke="#FFAA47" stroke-opacity="0.3" stroke-linecap="round" stroke-linejoin="round"/>
<path d="M1176.28 324.922H1240.43" stroke="#FFAA47" stroke-opacity="0.3" stroke-linecap="round" stroke-linejoin="round"/>
<path d="M1176.28 332.014H1240.43" stroke="#FFAA47" stroke-opacity="0.3" stroke-linecap="round" stroke-linejoin="round"/>
<path d="M1176.28 339.1H1240.43" stroke="#FFAA47" stroke-opacity="0.3" stroke-linecap="round" stroke-linejoin="round"/>
<path d="M1176.28 345.811H1240.43" stroke="#FFAA47" stroke-opacity="0.3" stroke-linecap="round" stroke-linejoin="round"/>
<path d="M1176.28 353.285H1240.43" stroke="#FFAA47" stroke-opacity="0.3" stroke-linecap="round" stroke-linejoin="round"/>
<path d="M1176.28 360.371H1240.43" stroke="#FFAA47" stroke-opacity="0.3" stroke-linecap="round" stroke-linejoin="round"/>
<path d="M1176.28 367.463H1240.43" stroke="#FFAA47" stroke-opacity="0.3" stroke-linecap="round" stroke-linejoin="round"/>
<path d="M1176.28 374.557H1240.43" stroke="#FFAA47" stroke-opacity="0.3" stroke-linecap="round" stroke-linejoin="round"/>
<path d="M1176.28 381.645H1240.43" stroke="#FFAA47" stroke-opacity="0.3" stroke-linecap="round" stroke-linejoin="round"/>
<path d="M1240.42 317.766V391.352" stroke="#FFAA47" stroke-linecap="round" stroke-linejoin="round"/>
<path d="M548.383 1H1220.77" stroke="#FFAA47" stroke-linecap="round" stroke-linejoin="round"/>
<path d="M1254.05 306.27L1245.03 109.848" stroke="#FFAA47" stroke-linecap="round" stroke-linejoin="round"/>
<path d="M1244.9 109.079L1226.42 5.85352" stroke="#FFAA47" stroke-linecap="round" stroke-linejoin="round"/>
<path d="M520.32 306.264L524.614 109.715" stroke="#FFAA47" stroke-linecap="round" stroke-linejoin="round"/>
<path d="M542.781 5.47266C534.243 39.5664 528.17 74.2608 524.611 109.273" stroke="#FFAA47" stroke-linecap="round" stroke-linejoin="round"/>
<path d="M548.379 1.00001C547.103 0.997893 545.862 1.42892 544.849 2.22607C543.836 3.02321 543.109 4.14176 542.779 5.40754" stroke="#FFAA47" stroke-linecap="round" stroke-linejoin="round"/>
<path d="M1226.42 5.85462C1226.17 4.4955 1225.47 3.26708 1224.44 2.38094C1223.41 1.49479 1222.1 1.00644 1220.76 1" stroke="#FFAA47" stroke-linecap="round" stroke-linejoin="round"/>
<path d="M524.611 109.273C524.611 109.273 524.611 109.273 524.611 109.721" stroke="#FFAA47" stroke-linecap="round" stroke-linejoin="round"/>
<path d="M1245.03 109.847C1245.04 109.591 1245.04 109.335 1245.03 109.08" stroke="#FFAA47" stroke-linecap="round" stroke-linejoin="round"/>
<path d="M392.689 526.26V506.203" stroke="#FFAA47" stroke-linecap="round" stroke-linejoin="round"/>
<path d="M392.689 532.652V547.089" stroke="#FFAA47" stroke-linecap="round" stroke-linejoin="round"/>
<path d="M137.203 487.869H15.1211" stroke="#FFAA47" stroke-linecap="round" stroke-linejoin="round"/>
<path d="M30.6144 376.021C29.9133 376.729 29.3993 377.608 29.1211 378.577" stroke="#FFAA47" stroke-linecap="round" stroke-linejoin="round"/>
<path d="M445.652 498.156C447.124 498.142 448.535 497.553 449.598 496.509C450.662 495.465 451.298 494.044 451.377 492.535" stroke="#FFAA47" stroke-linecap="round" stroke-linejoin="round"/>
<path d="M277.214 409.11C276.874 408.788 276.498 408.509 276.094 408.279" stroke="#FFAA47" stroke-linecap="round" stroke-linejoin="round"/>
<path d="M457.102 330.797H462.142" stroke="#FFAA47" stroke-linecap="round" stroke-linejoin="round"/>
<path d="M467.918 324.855V300.518" stroke="#FFAA47" stroke-linecap="round" stroke-linejoin="round"/>
<path d="M462.142 294.641H457.102" stroke="#FFAA47" stroke-linecap="round" stroke-linejoin="round"/>
<path d="M462.133 330.798C463.668 330.798 465.139 330.172 466.225 329.058C467.31 327.944 467.92 326.433 467.92 324.857" stroke="#FFAA47" stroke-linecap="round" stroke-linejoin="round"/>
<path d="M467.92 300.519C467.92 298.943 467.31 297.432 466.225 296.318C465.139 295.204 463.668 294.578 462.133 294.578" stroke="#FFAA47" stroke-linecap="round" stroke-linejoin="round"/>
<path d="M157.238 274.648H170.367" stroke="#FFAA47" stroke-linecap="round" stroke-linejoin="round"/>
<path d="M532.766 401.379V432.359" stroke="#FFAA47" stroke-linecap="round" stroke-linejoin="round"/>
<path d="M532.763 414.479H502.771" stroke="#FFAA47" stroke-linecap="round" stroke-linejoin="round"/>
<path d="M1158.1 506.203H974.977" stroke="#FFAA47" stroke-linecap="round" stroke-linejoin="round"/>
<path d="M819.175 506.203H724.223" stroke="#FFAA47" stroke-linecap="round" stroke-linejoin="round"/>
<path d="M1241.29 432.232H983.689" stroke="#FFAA47" stroke-linecap="round" stroke-linejoin="round"/>
<path d="M479.379 111.573C477.75 110.248 475.732 109.528 473.654 109.529" stroke="#FFAA47" stroke-linecap="round" stroke-linejoin="round"/>
<path d="M866.961 600.996H927.193" stroke="#FFAA47" stroke-linecap="round" stroke-linejoin="round"/>
<path d="M927.197 601C944.035 593.84 957.933 580.908 966.524 564.408C975.115 547.908 977.866 528.86 974.311 510.511C970.755 492.161 961.112 475.645 947.024 463.776C932.936 451.907 915.275 445.42 897.05 445.42C878.825 445.42 861.164 451.907 847.076 463.776C832.988 475.645 823.345 492.161 819.789 510.511C816.234 528.86 818.986 547.908 827.577 564.408C836.167 580.908 850.066 593.84 866.903 601" stroke="#FFAA47" stroke-linecap="round" stroke-linejoin="round"/>
<path d="M850.348 526.26C850.348 516.76 853.092 507.473 858.234 499.573C863.375 491.674 870.683 485.517 879.233 481.881C887.783 478.246 897.191 477.294 906.268 479.148C915.345 481.001 923.682 485.576 930.226 492.294C936.77 499.012 941.227 507.571 943.032 516.889C944.838 526.207 943.911 535.865 940.37 544.643C936.828 553.42 930.831 560.922 923.136 566.2C915.441 571.479 906.394 574.296 897.139 574.296C884.729 574.296 872.828 569.235 864.053 560.227C855.278 551.218 850.348 539 850.348 526.26Z" stroke="#FFAA47" stroke-linecap="round" stroke-linejoin="round"/>
<path d="M259.221 601C276.058 593.84 289.956 580.908 298.547 564.408C307.138 547.908 309.89 528.86 306.334 510.511C302.779 492.161 293.135 475.645 279.047 463.776C264.959 451.907 247.298 445.42 229.074 445.42C210.849 445.42 193.188 451.907 179.1 463.776C165.012 475.645 155.368 492.161 151.813 510.511C148.257 528.86 151.009 547.908 159.6 564.408C168.191 580.908 182.089 593.84 198.926 601" stroke="#FFAA47" stroke-linecap="round" stroke-linejoin="round"/>
<path d="M182.322 526.26C182.322 516.76 185.067 507.473 190.208 499.573C195.35 491.674 202.658 485.517 211.208 481.881C219.758 478.246 229.166 477.294 238.243 479.148C247.319 481.001 255.657 485.576 262.201 492.294C268.745 499.012 273.201 507.571 275.007 516.889C276.812 526.207 275.886 535.865 272.344 544.643C268.803 553.42 262.805 560.922 255.11 566.2C247.415 571.479 238.369 574.296 229.114 574.296C216.704 574.296 204.802 569.235 196.027 560.227C187.252 551.218 182.322 539 182.322 526.26Z" stroke="#FFAA47" stroke-linecap="round" stroke-linejoin="round"/>
<path d="M208.014 526.26C208.014 521.977 209.251 517.79 211.569 514.229C213.886 510.668 217.181 507.893 221.035 506.254C224.89 504.615 229.131 504.186 233.223 505.022C237.314 505.857 241.073 507.919 244.023 510.948C246.973 513.976 248.982 517.835 249.796 522.035C250.61 526.236 250.192 530.59 248.595 534.547C246.999 538.503 244.295 541.885 240.826 544.265C237.358 546.644 233.279 547.914 229.107 547.914C223.513 547.914 218.148 545.633 214.192 541.572C210.236 537.511 208.014 532.003 208.014 526.26Z" stroke="#FFAA47" stroke-linecap="round" stroke-linejoin="round"/>
<path d="M198.936 600.996H259.23" stroke="#FFAA47" stroke-linecap="round" stroke-linejoin="round"/>
<path d="M145.422 300.904C143.574 295.998 140.608 291.618 136.773 288.129" stroke="#FFAA47" stroke-linecap="round" stroke-linejoin="round"/>
<path d="M664.492 329.647C664.492 328.245 664.897 326.874 665.656 325.708C666.415 324.542 667.494 323.633 668.756 323.096C670.018 322.56 671.407 322.419 672.746 322.693C674.086 322.966 675.317 323.642 676.283 324.633C677.249 325.625 677.907 326.888 678.173 328.264C678.44 329.639 678.303 331.065 677.78 332.36C677.257 333.656 676.372 334.763 675.236 335.543C674.1 336.322 672.765 336.737 671.399 336.737C670.492 336.737 669.594 336.554 668.756 336.198C667.918 335.841 667.157 335.319 666.515 334.661C665.874 334.002 665.365 333.221 665.018 332.36C664.671 331.5 664.492 330.578 664.492 329.647Z" stroke="#FFAA47" stroke-linecap="round" stroke-linejoin="round"/>
<path d="M520.004 426.422C520.004 425.02 520.409 423.649 521.168 422.483C521.927 421.317 523.005 420.408 524.268 419.872C525.53 419.335 526.918 419.195 528.258 419.468C529.598 419.742 530.829 420.417 531.794 421.409C532.76 422.4 533.418 423.664 533.685 425.039C533.951 426.414 533.814 427.84 533.292 429.136C532.769 430.431 531.884 431.539 530.748 432.318C529.612 433.097 528.277 433.513 526.911 433.513C525.079 433.513 523.322 432.766 522.027 431.436C520.732 430.106 520.004 428.303 520.004 426.422Z" stroke="#FFAA47" stroke-linecap="round" stroke-linejoin="round"/>
<path d="M561.503 454.846C557.839 454.846 554.326 456.34 551.735 458.999C549.145 461.658 547.689 465.265 547.689 469.026" stroke="#FFAA47" stroke-linecap="round" stroke-linejoin="round"/>
<path d="M547.689 512.078C547.689 515.839 549.145 519.446 551.735 522.106C554.326 524.765 557.839 526.259 561.503 526.259" stroke="#FFAA47" stroke-linecap="round" stroke-linejoin="round"/>
<path d="M724.22 469.089C724.22 465.328 722.764 461.721 720.174 459.062C717.583 456.402 714.07 454.908 710.406 454.908" stroke="#FFAA47" stroke-linecap="round" stroke-linejoin="round"/>
<path d="M710.406 526.259C712.22 526.259 714.017 525.892 715.692 525.179C717.368 524.467 718.891 523.422 720.174 522.106C721.457 520.789 722.474 519.225 723.168 517.505C723.862 515.784 724.22 513.94 724.22 512.078" stroke="#FFAA47" stroke-linecap="round" stroke-linejoin="round"/>
</svg>
