<svg width="53" height="47" viewBox="0 0 53 47" fill="none" xmlns="http://www.w3.org/2000/svg">
<g id="Group 38">
<g id="truck" filter="url(#filter0_d_698_31808)">
<mask id="path-1-outside-1_698_31808" maskUnits="userSpaceOnUse" x="1.92829" y="5.07512" width="48.0971" height="41.6004" fill="black">
<rect fill="white" x="1.92829" y="5.07512" width="48.0971" height="41.6004"/>
<path fill-rule="evenodd" clip-rule="evenodd" d="M13.6851 21.8261L37.0948 6.99038C37.5613 6.69474 38.1791 6.83325 38.4748 7.29974L44.6903 17.1075C44.986 17.574 44.8475 18.1918 44.381 18.4875L43.9007 18.7918C42.6438 18.3619 41.2103 18.4852 40.0009 19.2517C38.7915 20.0181 38.068 21.2618 37.9202 22.5819L20.9712 33.3232C20.5047 33.6188 19.8869 33.4803 19.5913 33.0138L13.3757 23.206C13.0801 22.7395 13.2186 22.1217 13.6851 21.8261ZM14.3636 27.948C14.068 27.4815 13.4501 27.343 12.9837 27.6386L9.56484 29.8052C9.3502 29.9413 9.1954 30.1539 9.13188 30.3999L8.09552 34.4143C8.02644 34.6819 8.07117 34.9661 8.21911 35.1995L10.4879 38.7795C10.7835 39.246 11.4013 39.3845 11.8678 39.0888L12.3433 38.7875C12.4907 37.4667 13.2143 36.2222 14.4242 35.4554C15.587 34.7185 16.9569 34.5761 18.1779 34.9483C18.3518 34.6381 18.3542 34.2448 18.1505 33.9233L14.3636 27.948ZM43.9461 25.4782C42.6233 26.3166 40.8713 25.9238 40.033 24.601C39.1946 23.2781 39.5874 21.5261 40.9102 20.6878C42.2331 19.8494 43.9851 20.2422 44.8234 21.5651C45.6618 22.8879 45.269 24.6399 43.9461 25.4782ZM14.4593 40.8044C15.2976 42.1273 17.0496 42.52 18.3725 41.6817C19.6953 40.8433 20.0881 39.0914 19.2497 37.7685C18.4114 36.4457 16.6594 36.0529 15.3365 36.8912C14.0137 37.7296 13.6209 39.4816 14.4593 40.8044Z"/>
</mask>
<path d="M37.0948 6.99038L36.5595 6.14571L37.0948 6.99038ZM13.6851 21.8261L14.2204 22.6707L13.6851 21.8261ZM44.381 18.4875L44.9163 19.3321L44.381 18.4875ZM43.9007 18.7918L44.436 19.6365C44.1799 19.7988 43.864 19.8361 43.5771 19.738L43.9007 18.7918ZM37.9202 22.5819L38.914 22.6932C38.8802 22.9945 38.7116 23.2643 38.4555 23.4266L37.9202 22.5819ZM19.5913 33.0138L20.4359 32.4785L19.5913 33.0138ZM13.3757 23.206L12.531 23.7413L13.3757 23.206ZM9.13188 30.3999L8.16362 30.15L8.16362 30.15L9.13188 30.3999ZM8.09552 34.4143L7.12726 34.1643L7.12726 34.1643L8.09552 34.4143ZM8.21911 35.1995L7.37445 35.7348L8.21911 35.1995ZM10.4879 38.7795L11.3325 38.2442L10.4879 38.7795ZM11.8678 39.0888L11.3325 38.2442L11.8678 39.0888ZM12.3433 38.7875L13.3371 38.8984C13.3035 39.1998 13.1348 39.4698 12.8786 39.6321L12.3433 38.7875ZM18.1779 34.9483L19.0503 35.4371C18.8205 35.8473 18.336 36.0419 17.8863 35.9049L18.1779 34.9483ZM37.6301 7.83504L14.2204 22.6707L13.1498 20.9814L36.5595 6.14571L37.6301 7.83504ZM37.6301 7.83504L37.6301 7.83504L36.5595 6.14571C37.4925 5.55444 38.7281 5.83146 39.3194 6.76444L37.6301 7.83504ZM43.8457 17.6428L37.6301 7.83504L39.3194 6.76444L45.535 16.5722L43.8457 17.6428ZM43.8457 17.6428L43.8457 17.6428L45.535 16.5722C46.1263 17.5052 45.8492 18.7408 44.9163 19.3321L43.8457 17.6428ZM43.3654 17.9471L43.8457 17.6428L44.9163 19.3321L44.436 19.6365L43.3654 17.9471ZM39.4656 18.407C40.9419 17.4714 42.6929 17.3218 44.2243 17.8456L43.5771 19.738C42.5947 19.402 41.4786 19.4991 40.5362 20.0963L39.4656 18.407ZM36.9264 22.4706C37.1065 20.8621 37.9893 19.3426 39.4656 18.407L40.5362 20.0963C39.5938 20.6936 39.0295 21.6614 38.914 22.6932L36.9264 22.4706ZM20.4359 32.4785L37.3849 21.7372L38.4555 23.4266L21.5065 34.1678L20.4359 32.4785ZM20.4359 32.4785L20.4359 32.4785L21.5065 34.1678C20.5735 34.7591 19.3379 34.4821 18.7466 33.5491L20.4359 32.4785ZM14.2204 22.6707L20.4359 32.4785L18.7466 33.5491L12.531 23.7413L14.2204 22.6707ZM14.2204 22.6707L14.2204 22.6707L12.531 23.7413C11.9398 22.8083 12.2168 21.5727 13.1498 20.9814L14.2204 22.6707ZM12.4484 26.7939C13.3813 26.2027 14.617 26.4797 15.2083 27.4127L13.519 28.4833L13.519 28.4833L12.4484 26.7939ZM9.02954 28.9606L12.4484 26.7939L13.519 28.4833L10.1001 30.6499L9.02954 28.9606ZM8.16362 30.15C8.29066 29.6579 8.60027 29.2326 9.02954 28.9606L10.1001 30.6499L10.1001 30.6499L8.16362 30.15ZM7.12726 34.1643L8.16362 30.15L10.1001 30.6499L9.06377 34.6642L7.12726 34.1643ZM7.37445 35.7348C7.07858 35.268 6.9891 34.6995 7.12726 34.1643L9.06377 34.6642L9.06377 34.6642L7.37445 35.7348ZM9.64319 39.3148L7.37445 35.7348L9.06377 34.6642L11.3325 38.2442L9.64319 39.3148ZM12.4031 39.9335C11.4701 40.5248 10.2345 40.2477 9.64319 39.3148L11.3325 38.2442L12.4031 39.9335ZM12.8786 39.6321L12.4031 39.9335L11.3325 38.2442L11.808 37.9428L12.8786 39.6321ZM14.9595 36.3001C14.0167 36.8976 13.4523 37.8661 13.3371 38.8984L11.3495 38.6766C11.529 37.0672 12.412 35.5468 13.8889 34.6107L14.9595 36.3001ZM17.8863 35.9049C16.9322 35.614 15.8658 35.7257 14.9595 36.3001L13.8889 34.6107C15.3081 33.7113 16.9817 33.5382 18.4695 33.9918L17.8863 35.9049ZM18.9951 33.388C19.4033 34.0321 19.3966 34.8192 19.0503 35.4371L17.3055 34.4595L17.3058 34.4586L18.9951 33.388ZM15.2083 27.4127L18.9951 33.388L17.3058 34.4586L13.519 28.4833L15.2083 27.4127ZM40.8776 24.0657C41.4203 24.922 42.5545 25.1763 43.4108 24.6336L44.4814 26.3229C42.6921 27.4569 40.3223 26.9256 39.1883 25.1363L40.8776 24.0657ZM41.4455 21.5324C40.5892 22.0751 40.3349 23.2093 40.8776 24.0657L39.1883 25.1363C38.0543 23.3469 38.5856 20.9771 40.3749 19.8431L41.4455 21.5324ZM43.9787 22.1004C43.436 21.244 42.3019 20.9897 41.4455 21.5324L40.3749 19.8431C42.1643 18.7091 44.5341 19.2404 45.6681 21.0298L43.9787 22.1004ZM43.4108 24.6336C44.2672 24.0909 44.5215 22.9567 43.9787 22.1004L45.6681 21.0298C46.8021 22.8191 46.2708 25.1889 44.4814 26.3229L43.4108 24.6336ZM18.9077 42.5263C17.1184 43.6603 14.7486 43.1291 13.6146 41.3397L15.3039 40.2691C15.8466 41.1255 16.9808 41.3797 17.8372 40.837L18.9077 42.5263ZM20.0944 37.2332C21.2284 39.0225 20.6971 41.3924 18.9077 42.5263L17.8372 40.837C18.6935 40.2943 18.9478 39.1602 18.4051 38.3038L20.0944 37.2332ZM14.8012 36.0466C16.5906 34.9126 18.9604 35.4439 20.0944 37.2332L18.4051 38.3038C17.8624 37.4475 16.7282 37.1932 15.8718 37.7359L14.8012 36.0466ZM13.6146 41.3397C12.4806 39.5504 13.0119 37.1805 14.8012 36.0466L15.8718 37.7359C15.0155 38.2786 14.7612 39.4128 15.3039 40.2691L13.6146 41.3397Z" fill="white" mask="url(#path-1-outside-1_698_31808)"/>
<path d="M37.0948 6.99038L36.5595 6.14571L37.0948 6.99038ZM13.6851 21.8261L14.2204 22.6707L13.6851 21.8261ZM44.381 18.4875L44.9163 19.3321L44.381 18.4875ZM43.9007 18.7918L44.436 19.6365C44.1799 19.7988 43.864 19.8361 43.5771 19.738L43.9007 18.7918ZM37.9202 22.5819L38.914 22.6932C38.8802 22.9945 38.7116 23.2643 38.4555 23.4266L37.9202 22.5819ZM19.5913 33.0138L20.4359 32.4785L19.5913 33.0138ZM13.3757 23.206L12.531 23.7413L13.3757 23.206ZM9.13188 30.3999L8.16362 30.15L8.16362 30.15L9.13188 30.3999ZM8.09552 34.4143L7.12726 34.1643L7.12726 34.1643L8.09552 34.4143ZM8.21911 35.1995L7.37445 35.7348L8.21911 35.1995ZM10.4879 38.7795L11.3325 38.2442L10.4879 38.7795ZM11.8678 39.0888L11.3325 38.2442L11.8678 39.0888ZM12.3433 38.7875L13.3371 38.8984C13.3035 39.1998 13.1348 39.4698 12.8786 39.6321L12.3433 38.7875ZM18.1779 34.9483L19.0503 35.4371C18.8205 35.8473 18.336 36.0419 17.8863 35.9049L18.1779 34.9483ZM37.6301 7.83504L14.2204 22.6707L13.1498 20.9814L36.5595 6.14571L37.6301 7.83504ZM37.6301 7.83504L37.6301 7.83504L36.5595 6.14571C37.4925 5.55444 38.7281 5.83146 39.3194 6.76444L37.6301 7.83504ZM43.8457 17.6428L37.6301 7.83504L39.3194 6.76444L45.535 16.5722L43.8457 17.6428ZM43.8457 17.6428L43.8457 17.6428L45.535 16.5722C46.1263 17.5052 45.8492 18.7408 44.9163 19.3321L43.8457 17.6428ZM43.3654 17.9471L43.8457 17.6428L44.9163 19.3321L44.436 19.6365L43.3654 17.9471ZM39.4656 18.407C40.9419 17.4714 42.6929 17.3218 44.2243 17.8456L43.5771 19.738C42.5947 19.402 41.4786 19.4991 40.5362 20.0963L39.4656 18.407ZM36.9264 22.4706C37.1065 20.8621 37.9893 19.3426 39.4656 18.407L40.5362 20.0963C39.5938 20.6936 39.0295 21.6614 38.914 22.6932L36.9264 22.4706ZM20.4359 32.4785L37.3849 21.7372L38.4555 23.4266L21.5065 34.1678L20.4359 32.4785ZM20.4359 32.4785L20.4359 32.4785L21.5065 34.1678C20.5735 34.7591 19.3379 34.4821 18.7466 33.5491L20.4359 32.4785ZM14.2204 22.6707L20.4359 32.4785L18.7466 33.5491L12.531 23.7413L14.2204 22.6707ZM14.2204 22.6707L14.2204 22.6707L12.531 23.7413C11.9398 22.8083 12.2168 21.5727 13.1498 20.9814L14.2204 22.6707ZM12.4484 26.7939C13.3813 26.2027 14.617 26.4797 15.2083 27.4127L13.519 28.4833L13.519 28.4833L12.4484 26.7939ZM9.02954 28.9606L12.4484 26.7939L13.519 28.4833L10.1001 30.6499L9.02954 28.9606ZM8.16362 30.15C8.29066 29.6579 8.60027 29.2326 9.02954 28.9606L10.1001 30.6499L10.1001 30.6499L8.16362 30.15ZM7.12726 34.1643L8.16362 30.15L10.1001 30.6499L9.06377 34.6642L7.12726 34.1643ZM7.37445 35.7348C7.07858 35.268 6.9891 34.6995 7.12726 34.1643L9.06377 34.6642L9.06377 34.6642L7.37445 35.7348ZM9.64319 39.3148L7.37445 35.7348L9.06377 34.6642L11.3325 38.2442L9.64319 39.3148ZM12.4031 39.9335C11.4701 40.5248 10.2345 40.2477 9.64319 39.3148L11.3325 38.2442L12.4031 39.9335ZM12.8786 39.6321L12.4031 39.9335L11.3325 38.2442L11.808 37.9428L12.8786 39.6321ZM14.9595 36.3001C14.0167 36.8976 13.4523 37.8661 13.3371 38.8984L11.3495 38.6766C11.529 37.0672 12.412 35.5468 13.8889 34.6107L14.9595 36.3001ZM17.8863 35.9049C16.9322 35.614 15.8658 35.7257 14.9595 36.3001L13.8889 34.6107C15.3081 33.7113 16.9817 33.5382 18.4695 33.9918L17.8863 35.9049ZM18.9951 33.388C19.4033 34.0321 19.3966 34.8192 19.0503 35.4371L17.3055 34.4595L17.3058 34.4586L18.9951 33.388ZM15.2083 27.4127L18.9951 33.388L17.3058 34.4586L13.519 28.4833L15.2083 27.4127ZM40.8776 24.0657C41.4203 24.922 42.5545 25.1763 43.4108 24.6336L44.4814 26.3229C42.6921 27.4569 40.3223 26.9256 39.1883 25.1363L40.8776 24.0657ZM41.4455 21.5324C40.5892 22.0751 40.3349 23.2093 40.8776 24.0657L39.1883 25.1363C38.0543 23.3469 38.5856 20.9771 40.3749 19.8431L41.4455 21.5324ZM43.9787 22.1004C43.436 21.244 42.3019 20.9897 41.4455 21.5324L40.3749 19.8431C42.1643 18.7091 44.5341 19.2404 45.6681 21.0298L43.9787 22.1004ZM43.4108 24.6336C44.2672 24.0909 44.5215 22.9567 43.9787 22.1004L45.6681 21.0298C46.8021 22.8191 46.2708 25.1889 44.4814 26.3229L43.4108 24.6336ZM18.9077 42.5263C17.1184 43.6603 14.7486 43.1291 13.6146 41.3397L15.3039 40.2691C15.8466 41.1255 16.9808 41.3797 17.8372 40.837L18.9077 42.5263ZM20.0944 37.2332C21.2284 39.0225 20.6971 41.3924 18.9077 42.5263L17.8372 40.837C18.6935 40.2943 18.9478 39.1602 18.4051 38.3038L20.0944 37.2332ZM14.8012 36.0466C16.5906 34.9126 18.9604 35.4439 20.0944 37.2332L18.4051 38.3038C17.8624 37.4475 16.7282 37.1932 15.8718 37.7359L14.8012 36.0466ZM13.6146 41.3397C12.4806 39.5504 13.0119 37.1805 14.8012 36.0466L15.8718 37.7359C15.0155 38.2786 14.7612 39.4128 15.3039 40.2691L13.6146 41.3397Z" fill="white" fill-opacity="0.6" mask="url(#path-1-outside-1_698_31808)"/>
</g>
</g>
<defs>
<filter id="filter0_d_698_31808" x="5.06445" y="0.833984" width="47.1992" height="45.2891" filterUnits="userSpaceOnUse" color-interpolation-filters="sRGB">
<feFlood flood-opacity="0" result="BackgroundImageFix"/>
<feColorMatrix in="SourceAlpha" type="matrix" values="0 0 0 0 0 0 0 0 0 0 0 0 0 0 0 0 0 0 127 0" result="hardAlpha"/>
<feOffset dx="2" dy="-1"/>
<feGaussianBlur stdDeviation="2"/>
<feComposite in2="hardAlpha" operator="out"/>
<feColorMatrix type="matrix" values="0 0 0 0 0.592157 0 0 0 0 0.278431 0 0 0 0 1 0 0 0 1 0"/>
<feBlend mode="normal" in2="BackgroundImageFix" result="effect1_dropShadow_698_31808"/>
<feBlend mode="normal" in="SourceGraphic" in2="effect1_dropShadow_698_31808" result="shape"/>
</filter>
</defs>
</svg>
