<svg width="32" height="34" viewBox="0 0 32 34" fill="none" xmlns="http://www.w3.org/2000/svg">
<g id="box" filter="url(#filter0_d_698_31801)">
<path d="M29.52 23.1767L30.02 23.1772V23.1767H29.52ZM28.1022 25.6153L28.3492 26.05L28.3511 26.0489L28.1022 25.6153ZM18.1778 3.82301L17.9289 4.25665L17.9308 4.25775L18.1778 3.82301ZM15.3422 3.82301L15.5892 4.25775L15.5911 4.25665L15.3422 3.82301ZM5.66669 9.89501C5.90618 9.75753 5.98889 9.45195 5.85142 9.21245C5.71394 8.97296 5.40835 8.89026 5.16886 9.02773L5.66669 9.89501ZM5.41778 25.6153L5.16886 26.0489L5.17079 26.05L5.41778 25.6153ZM4.38062 24.5846L4.81287 24.3333L4.81287 24.3333L4.38062 24.5846ZM4 23.1767H3.5L3.5 23.1772L4 23.1767ZM3.5 11.8994C3.49972 12.1756 3.72334 12.3997 3.99948 12.4C4.27563 12.4002 4.49971 12.1766 4.5 11.9005L3.5 11.8994ZM16.1507 16.1924L16.4 15.759L16.1507 16.1924ZM17.3694 16.1924L17.1202 15.759L17.3694 16.1924ZM5.41778 9.46137L5.17079 9.02663L5.16886 9.02773L5.41778 9.46137ZM5.44524 10.0354L5.19596 10.4688L5.44524 10.0354ZM28.1022 9.46137L28.3511 9.02773L28.3492 9.02663L28.1022 9.46137ZM28.0748 10.0355L27.8255 9.60208L28.0748 10.0355ZM15.3422 31.2536L15.5911 30.82L15.5892 30.8189L15.3422 31.2536ZM28.8915 11.5845L28.6423 11.1511L28.8915 11.5845ZM15.2721 17.7059L15.5214 17.2724L15.2721 17.7059ZM18.2479 17.706L17.9986 17.2725L18.2479 17.706ZM4.62856 11.5845L4.87783 11.1511L4.62856 11.5845ZM4 11.9L3.5 11.8994V11.9H4ZM18.1778 31.2536L17.9308 30.8189L17.9289 30.82L18.1778 31.2536ZM30.02 23.1767V11.9H29.02V23.1767H30.02ZM29.5716 24.8359C29.8647 24.3319 30.0194 23.7598 30.02 23.1772L29.02 23.1762C29.0196 23.5823 28.9118 23.9814 28.7071 24.3333L29.5716 24.8359ZM28.3511 26.0489C28.8576 25.7582 29.2786 25.34 29.5716 24.8359L28.7071 24.3333C28.5025 24.6853 28.2081 24.978 27.8533 25.1816L28.3511 26.0489ZM18.4248 31.6884L28.3492 26.05L27.8552 25.1805L17.9308 30.8189L18.4248 31.6884ZM18.135 30.8991V18.7655H17.135V30.8991H18.135ZM18.4972 18.1394L29.1408 12.018L28.6423 11.1511L17.9986 17.2725L18.4972 18.1394ZM28.3492 9.02663L18.4248 3.38827L17.9308 4.25775L27.8552 9.89611L28.3492 9.02663ZM18.4267 3.38937C17.9198 3.09839 17.345 2.94531 16.76 2.94531V3.94531C17.1705 3.94531 17.5737 4.05276 17.9289 4.25665L18.4267 3.38937ZM16.76 2.94531C16.175 2.94531 15.6002 3.09839 15.0933 3.38937L15.5911 4.25665C15.9463 4.05276 16.3495 3.94531 16.76 3.94531V2.94531ZM15.0952 3.38827L5.17079 9.02663L5.66477 9.89611L15.5892 4.25775L15.0952 3.38827ZM16.4 15.759L5.69452 9.60197L5.19596 10.4688L15.9015 16.6258L16.4 15.759ZM27.8255 9.60208L17.1202 15.759L17.6187 16.6258L28.324 10.4689L27.8255 9.60208ZM4.37928 12.0179L15.0228 18.1393L15.5214 17.2724L4.87783 11.1511L4.37928 12.0179ZM15.385 18.7654V30.8991H16.385V18.7654H15.385ZM5.17079 26.05L15.0952 31.6884L15.5892 30.8189L5.66477 25.1805L5.17079 26.05ZM3.94836 24.8359C4.24141 25.34 4.66242 25.7582 5.16886 26.0489L5.66669 25.1816C5.31187 24.978 5.01752 24.6853 4.81287 24.3333L3.94836 24.8359ZM3.5 23.1772C3.5006 23.7598 3.6553 24.3319 3.94837 24.8359L4.81287 24.3333C4.60824 23.9814 4.50042 23.5823 4.5 23.1762L3.5 23.1772ZM3.5 11.9V23.1767H4.5V11.9H3.5ZM15.9015 16.6258C16.4331 16.9316 17.0871 16.9316 17.6187 16.6258L17.1202 15.759C16.8972 15.8872 16.6229 15.8872 16.4 15.759L15.9015 16.6258ZM5.16886 9.02773C4.8792 9.194 4.74516 9.49219 4.76294 9.77923C4.78016 10.0573 4.93692 10.3198 5.19596 10.4688L5.69452 9.60197C5.72758 9.62099 5.75756 9.66141 5.76102 9.7174C5.7628 9.74614 5.75754 9.78135 5.73921 9.81688C5.71997 9.85415 5.69208 9.88043 5.66669 9.89501L5.16886 9.02773ZM27.8533 9.89501C27.8279 9.88044 27.8 9.85416 27.7808 9.8169C27.7625 9.78138 27.7572 9.74617 27.759 9.71745C27.7625 9.66148 27.7924 9.62109 27.8255 9.60208L28.324 10.4689C28.5831 10.3199 28.7399 10.0574 28.7571 9.77929C28.7749 9.49223 28.6408 9.19401 28.3511 9.02773L27.8533 9.89501ZM15.385 30.8991C15.385 30.8805 15.395 30.8502 15.4292 30.8271C15.4471 30.815 15.4737 30.8038 15.5073 30.802C15.5429 30.8 15.5728 30.8095 15.5911 30.82L15.0933 31.6873C15.3982 31.8623 15.7389 31.8247 15.9891 31.6557C16.231 31.4922 16.385 31.2116 16.385 30.8991H15.385ZM29.1408 12.018C29.1374 12.0199 29.1202 12.0269 29.0928 12.0137C29.078 12.0066 29.0585 11.9924 29.0424 11.9679C29.0252 11.9416 29.02 11.9157 29.02 11.9005L30.02 11.8994C30.0196 11.5337 29.8083 11.248 29.5259 11.1123C29.2534 10.9814 28.9222 10.9901 28.6423 11.1511L29.1408 12.018ZM15.0228 18.1393C15.2469 18.2681 15.385 18.5069 15.385 18.7654H16.385C16.385 18.149 16.0557 17.5797 15.5214 17.2724L15.0228 18.1393ZM18.135 18.7655C18.135 18.507 18.2731 18.2683 18.4972 18.1394L17.9986 17.2725C17.4643 17.5798 17.135 18.1491 17.135 18.7655H18.135ZM4.87783 11.1511C4.59792 10.9901 4.26664 10.9814 3.99417 11.1123C3.71174 11.248 3.50038 11.5337 3.5 11.8994L4.5 11.9005C4.49998 11.9157 4.49483 11.9416 4.47761 11.9679C4.46153 11.9924 4.44198 12.0066 4.42724 12.0136C4.39983 12.0268 4.38266 12.0199 4.37928 12.0179L4.87783 11.1511ZM17.9289 30.82C17.9472 30.8095 17.9771 30.8 18.0127 30.802C18.0463 30.8038 18.0729 30.815 18.0908 30.8271C18.125 30.8502 18.135 30.8805 18.135 30.8991H17.135C17.135 31.2116 17.289 31.4922 17.5309 31.6557C17.7811 31.8247 18.1218 31.8623 18.4267 31.6873L17.9289 30.82Z" fill="url(#paint0_linear_698_31801)"/>
</g>
<defs>
<filter id="filter0_d_698_31801" x="0.5" y="0.945312" width="30.5195" height="32.8574" filterUnits="userSpaceOnUse" color-interpolation-filters="sRGB">
<feFlood flood-opacity="0" result="BackgroundImageFix"/>
<feColorMatrix in="SourceAlpha" type="matrix" values="0 0 0 0 0 0 0 0 0 0 0 0 0 0 0 0 0 0 127 0" result="hardAlpha"/>
<feOffset dx="-1"/>
<feGaussianBlur stdDeviation="1"/>
<feComposite in2="hardAlpha" operator="out"/>
<feColorMatrix type="matrix" values="0 0 0 0 0.592157 0 0 0 0 0.278431 0 0 0 0 1 0 0 0 1 0"/>
<feBlend mode="normal" in2="BackgroundImageFix" result="effect1_dropShadow_698_31801"/>
<feBlend mode="normal" in="SourceGraphic" in2="effect1_dropShadow_698_31801" result="shape"/>
</filter>
<linearGradient id="paint0_linear_698_31801" x1="-0.158393" y1="-1.3425" x2="43.7226" y2="0.0524398" gradientUnits="userSpaceOnUse">
<stop stop-color="white"/>
<stop offset="0.927083" stop-color="white"/>
</linearGradient>
</defs>
</svg>
